<svg width="278" height="277" viewBox="0 0 278 277" fill="none" xmlns="http://www.w3.org/2000/svg">
<path d="M8.70001 115.7C13.1 115.7 16.7 101.2 16.7 83.3C16.7 65.4 13.1 50.9 8.70001 50.9C4.30001 50.9 0.700012 65.4 0.700012 83.3C0.700012 101.2 4.30001 115.7 8.70001 115.7Z" fill="black"/>
<path d="M243.6 18C239.4 18 235.7 27.3 233.1 42.2C228.9 16.7 222.2 0 214.6 0C205.6 0 197.7 23.5 194 57.7C190.4 32.8 184.9 16.9 178.7 16.9C170.1 16.9 162.7 48.1 160 91.6C154.9 69.3 147.5 55.3 139.3 55.3C131.1 55.3 123.7 69.3 118.6 91.6C115.8 48.2 108.5 17 99.8 17C93.6 17 88.1 32.9 84.5 57.8C80.8 23.5 73 0 63.9 0C56.3 0 49.5 16.7 45.4 42.3C42.9 27.4 39.1 18 34.9 18C27.1 18 20.8 50.4 20.8 90.4C20.8 130.4 27.1 162.8 34.9 162.8C38.1 162.8 41.1 157.3 43.4 148.1C47.1 181.9 54.9 205.1 63.9 205.1C70.9 205.1 77.1 191.2 81.3 169.2C84.2 211 91.4 240.7 99.8 240.7C105.1 240.7 109.9 228.9 113.5 209.8C117.8 249.3 127.7 277 139.3 277C150.9 277 160.8 249.3 165.1 209.8C168.7 228.9 173.5 240.7 178.8 240.7C187.2 240.7 194.4 211 197.3 169.2C201.5 191.2 207.7 205.1 214.7 205.1C223.7 205.1 231.5 181.9 235.2 148.1C237.6 157.3 240.5 162.8 243.7 162.8C251.5 162.8 257.8 130.4 257.8 90.4C257.7 50.5 251.4 18 243.6 18Z" fill="black"/>
<path d="M269.8 115.7C274.2 115.7 277.8 101.2 277.8 83.3C277.8 65.4 274.2 50.9 269.8 50.9C265.4 50.9 261.8 65.4 261.8 83.3C261.8 101.2 265.4 115.7 269.8 115.7Z" fill="black"/>
</svg>
