<svg width="165" height="143" viewBox="0 0 165 143" fill="none" xmlns="http://www.w3.org/2000/svg">
<rect opacity="0.2" x="23.1035" y="81.0918" width="85.733" height="159.299" transform="rotate(-67.2745 23.1035 81.0918)" fill="black"/>
<g clip-path="url(#clip0_341_1119)">
<path d="M78.1058 54.3551C70.7127 73.8906 49.3175 84.4932 30.3182 78.0366C11.3189 71.58 1.91015 50.5093 9.30319 30.9738C16.6962 11.4382 38.0914 0.835652 57.0907 7.29223C76.0901 13.7488 85.4988 34.8196 78.1058 54.3551Z" fill="black"/>
<path fill-rule="evenodd" clip-rule="evenodd" d="M28.4306 82.9933C50.7294 90.5652 75.0787 78.0171 83.3673 56.1324C91.6558 34.2476 81.2775 9.90718 58.9787 2.33523C36.6799 -5.23672 12.3306 7.31138 4.04202 29.1961C-4.24651 51.0809 6.13179 75.4213 28.4306 82.9933ZM78.1376 54.3566C70.7378 73.8949 49.3228 84.4989 30.306 78.0414C11.2892 71.584 1.87182 50.5102 9.27166 30.9719C16.6715 11.4337 38.0864 0.829585 57.1032 7.28707C76.12 13.7446 85.5375 34.8183 78.1376 54.3566ZM61.6909 39.864C61.0251 42.938 58.1192 45.1539 55.2003 44.8134C52.2815 44.473 50.4551 41.705 51.1209 38.631C51.2568 38.0037 51.4859 37.4122 51.7894 36.8708L40.8911 38.0532C40.3171 44.5743 44.587 50.5333 50.7376 51.5745C57.1422 52.6586 63.1606 47.9999 64.1801 41.1688C64.4695 39.2301 64.3251 37.3248 63.8235 35.5653L61.0697 35.864C61.7528 36.9668 62.0123 38.3797 61.6909 39.864ZM29.7154 45.6252C32.6342 45.9657 35.5401 43.7497 36.2059 40.6757C36.3649 39.9413 36.3818 39.2244 36.2754 38.5539L38.8662 38.2728C38.9687 39.3348 38.9446 40.4284 38.7798 41.5328C37.7602 48.3638 31.7418 53.0226 25.3373 51.9384C19.9492 51.0263 16.0044 46.3402 15.495 40.8083L25.5835 39.7138C25.0788 42.6779 26.8826 45.2947 29.7154 45.6252ZM24.8346 26.1908C27.3476 22.1456 35.2544 14.8276 46.7553 17.5618C47.6238 17.7683 48.5047 17.269 48.7227 16.4466C48.9408 15.6243 48.4135 14.7902 47.545 14.5837C34.0761 11.3816 24.9311 19.9793 22.0395 24.634C21.5854 25.3648 21.8431 26.3058 22.6149 26.7357C23.3868 27.1656 24.3805 26.9217 24.8346 26.1908ZM43.7155 23.9323C37.6558 22.4927 33.4654 26.3397 32.1307 28.4865C31.6764 29.2172 30.6825 29.4609 29.9109 29.0307C29.1392 28.6006 28.8818 27.6595 29.3361 26.9288C31.0502 24.1717 36.4787 19.0474 44.5046 20.954C45.3732 21.1604 45.9006 21.9944 45.6827 22.8168C45.4648 23.6392 44.584 24.1386 43.7155 23.9323ZM53.4546 59.1698C52.1199 61.3167 47.9294 65.1636 41.8698 63.724C41.0012 63.5177 40.1205 64.0171 39.9025 64.8396C39.6846 65.662 40.2121 66.496 41.0807 66.7023C49.1065 68.6089 54.535 63.4846 56.2491 60.7275C56.7034 59.9968 56.4461 59.0558 55.6744 58.6256C54.9027 58.1954 53.9089 58.4391 53.4546 59.1698Z" fill="white"/>
</g>
<defs>
<clipPath id="clip0_341_1119">
<rect width="85.2588" height="85.2588" fill="white" transform="translate(0.947266 0.0351562)"/>
</clipPath>
</defs>
</svg>
