<svg width="464" height="188" viewBox="0 0 464 188" fill="none" xmlns="http://www.w3.org/2000/svg">
<path fill-rule="evenodd" clip-rule="evenodd" d="M99.5972 187.869L105.083 119.603L133.295 139.695C137.624 142.778 142.956 137.459 139.866 133.139L119.706 104.961L160.837 101.441C160.641 99.2109 160.541 96.9528 160.541 94.6714C160.541 94.5595 160.541 94.4476 160.542 94.3357C160.723 136.455 195.001 170.543 237.259 170.543C265.3 170.543 289.827 155.533 303.21 133.128C316.592 155.533 341.119 170.543 369.16 170.543C411.53 170.543 445.878 136.273 445.878 94C445.878 51.7266 411.53 17.4571 369.16 17.4571C341.119 17.4571 316.592 32.4666 303.21 54.8723C289.827 32.4666 265.3 17.4571 237.259 17.4571C197.321 17.4571 164.51 47.9058 160.875 86.8055L119.706 83.2831L139.866 55.1044C142.956 50.785 137.624 45.4652 133.295 48.5484L105.099 68.6289L99.7884 0.140705C126.193 1.57352 149.704 13.8536 165.924 32.5922C183.2 12.6322 208.75 0 237.258 0C262.936 0 286.214 10.249 303.208 26.8705C320.202 10.249 343.481 0 369.159 0C421.193 0 463.374 42.0852 463.374 94C463.374 145.915 421.193 188 369.159 188C343.481 188 320.202 177.751 303.208 161.129C286.214 177.751 262.936 188 237.258 188C208.75 188 183.2 175.368 165.924 155.408C149.665 174.192 126.079 186.486 99.5972 187.869ZM89.6871 187.875C41.6787 185.42 3.16415 147.11 0.519095 99.2595L68.6636 104.97L48.5106 133.139C45.4204 137.459 50.7523 142.778 55.0816 139.695L83.3613 119.555L89.6871 187.875ZM0.48291 89.4422L68.6879 83.3073L48.5106 55.1044C45.4204 50.785 50.7523 45.4652 55.0816 48.5484L83.3795 68.7013L89.9602 0.111473C41.5902 2.44631 2.79253 41.1747 0.48291 89.4422ZM319.361 122.603V65.1286H385.85C402.654 65.1286 412.921 68.6731 418.979 73.918C424.997 79.1276 427.089 86.2147 427.089 93.8657C427.089 101.45 424.567 108.557 418.291 113.798C411.98 119.068 401.689 122.603 385.85 122.603H319.361ZM340.223 81.2429V106.489H384.908C392.031 106.489 397.113 105.553 400.44 103.462C403.915 101.278 405.285 97.9672 405.285 93.8657C405.285 89.7642 403.915 86.4531 400.44 84.2695C397.113 82.1786 392.031 81.2429 384.908 81.2429H340.223ZM289.685 106.975C291.693 103.228 292.656 98.8264 292.656 93.7314C292.656 88.6365 291.693 84.2352 289.685 80.4878C287.681 76.7474 284.594 73.5817 280.223 71.0124C271.426 65.8417 257.476 63.1143 237.002 63.1143C216.528 63.1143 202.577 65.8417 193.781 71.0124C189.41 73.5817 186.323 76.7474 184.318 80.4878C182.31 84.2352 181.348 88.6365 181.348 93.7314C181.348 98.8264 182.31 103.228 184.318 106.975C186.323 110.715 189.41 113.881 193.781 116.45C202.577 121.621 216.528 124.349 237.002 124.349C257.476 124.349 271.426 121.621 280.223 116.45C284.594 113.881 287.681 110.715 289.685 106.975ZM205.841 101.042C204.08 99.0656 203.152 96.6287 203.152 93.7314C203.152 90.9339 204.092 88.5794 205.859 86.6731C207.595 84.7989 210.066 83.4248 213.037 82.4142C218.96 80.3996 227.275 79.6986 237.002 79.6986C246.724 79.6986 254.814 80.3986 260.512 82.4199C263.375 83.4356 265.731 84.8179 267.376 86.7027C269.047 88.6157 269.91 90.9618 269.91 93.7314C269.91 96.6021 269.057 99.0302 267.393 101.012C265.75 102.969 263.393 104.401 260.524 105.45C254.82 107.535 246.722 108.234 237.002 108.234C227.278 108.234 218.955 107.534 213.025 105.456C210.048 104.412 207.576 102.989 205.841 101.042Z" fill="black"/>
</svg>
