<svg width="1512" height="32" viewBox="0 0 1512 32" fill="none" xmlns="http://www.w3.org/2000/svg">
<rect x="1568" width="32.0001" height="1593" transform="rotate(90 1568 0)" fill="white"/>
<rect x="67.2168" width="7.68457" height="32" fill="#101210"/>
<rect x="21.1074" width="7.68457" height="32" fill="#101210"/>
<rect x="113.322" width="7.68457" height="32" fill="#101210"/>
<rect x="213.217" width="15.3691" height="32" fill="#101210"/>
<rect x="159.43" width="15.3691" height="32" fill="#101210"/>
<rect x="320.807" width="15.3691" height="32" fill="#101210"/>
<rect x="267.021" width="15.3691" height="32" fill="#101210"/>
<rect x="374.59" width="23.0537" height="32" fill="#101210"/>
<rect x="497.557" width="23.0537" height="32" fill="#101210"/>
<rect x="559.023" width="23.0537" height="32" fill="#101210"/>
<rect x="436.074" width="23.0537" height="32" fill="#101210"/>
<rect x="620.506" width="30.7383" height="32" fill="#101210"/>
<rect x="689.666" width="30.7383" height="32" fill="#101210"/>
<rect x="751.148" width="30.7383" height="32" fill="#101210"/>
<rect x="812.611" width="30.7383" height="32" fill="#101210"/>
<rect x="866.416" width="38.4228" height="32" fill="#101210"/>
<rect x="920.201" width="46.1074" height="32" fill="#101210"/>
<rect x="981.684" width="46.1074" height="32" fill="#101210"/>
<rect x="1047.3" width="46.1074" height="32" fill="#101210"/>
<rect x="1112.31" width="53.792" height="32" fill="#101210"/>
<rect x="1181.47" width="53.792" height="32" fill="#101210"/>
<rect x="1250.63" width="61.4765" height="32" fill="#101210"/>
<rect x="1319.79" width="69.1611" height="32" fill="#101210"/>
<rect x="1396.65" width="69.1611" height="32" fill="#101210"/>
</svg>
