<svg width="128" height="128" viewBox="0 0 128 128" fill="none" xmlns="http://www.w3.org/2000/svg">
<rect width="128" height="128" fill="white"/>
<path d="M63.6055 62.3013C72.2849 62.3013 76.2301 58.2507 76.2301 49.496C76.2301 39.0427 71.7589 36.6907 61.8959 36.6907C59.1342 36.6907 52.6904 36.8213 47.5616 36.952C47.5616 45.4453 47.5616 53.9387 47.6932 62.04C51.3753 62.1707 57.1616 62.1707 63.6055 62.3013ZM84.3836 73.2773V74.0613C97.9288 75.76 103.321 79.68 106.608 92.8773C108.712 100.325 110.685 108.557 112 113H82.674C77.8082 113 76.8877 111.301 74.6521 101.24C71.4959 84.776 69.6548 81.9013 61.6329 81.9013C56.8986 81.9013 54.137 81.7707 47.8247 81.9013C48.0877 94.4453 48.4822 105.291 49.2712 113H16C16.263 98.7573 16.526 84.9067 16.526 64C16.526 43.224 16.3945 29.112 16 15H69.7863C93.8521 15 107.66 23.8853 107.66 44.5307C107.66 62.432 101.085 70.664 84.3836 73.2773Z" fill="black"/>
</svg>
