<svg width="1512" height="1890" viewBox="0 0 1512 1890" fill="none" xmlns="http://www.w3.org/2000/svg">
<g clip-path="url(#clip0_106_523)">
<g clip-path="url(#clip1_106_523)">
<rect width="2259.6" height="1139.6" transform="translate(1661.8 2515.8) rotate(-180)" fill="#C0B2B2"/>
<rect x="1661.8" y="1636.6" width="565.6" height="110.6" transform="rotate(-180 1661.8 1636.6)" fill="#B990FE"/>
<rect x="525.565" y="1936.17" width="558.701" height="194.604" transform="rotate(-180 525.565 1936.17)" fill="url(#paint0_linear_106_523)"/>
<rect x="1096.19" y="2055.2" width="571.2" height="1443.4" transform="rotate(-180 1096.19 2055.2)" fill="url(#paint1_linear_106_523)"/>
</g>
<g clip-path="url(#clip2_106_523)">
<rect width="2259.91" height="1565.2" transform="translate(-37.8 -37.8)" fill="#FA662C"/>
<rect x="-37.8" y="1146.6" width="565.6" height="1640.8" fill="url(#paint2_linear_106_523)"/>
<rect x="-37.8" y="882.906" width="564.979" height="160.426" fill="#C8BBBB"/>
<rect x="-37.8" y="736.4" width="565.6" height="147" fill="#B990FE"/>
<rect x="-37.8" y="576.009" width="564.979" height="160.426" fill="#C0B2B2"/>
<rect x="-37.8" y="422.553" width="564.979" height="153.451" fill="#C0B2B2"/>
<rect x="1099.13" y="-37.8" width="558.004" height="153.451" fill="black"/>
<path d="M1097.6 3.05176e-05H1513.4V613.2H1097.6V3.05176e-05Z" fill="url(#paint3_linear_106_523)"/>
<rect x="1099.13" y="276.077" width="558.004" height="146.476" fill="#C0B2B2"/>
<rect x="1096.2" y="274.4" width="561.4" height="268.8" fill="url(#paint4_linear_106_523)"/>
<rect x="1098.43" y="541.826" width="558.701" height="194.604" fill="url(#paint5_linear_106_523)"/>
<rect x="1099.13" y="736.43" width="558.004" height="146.476" fill="#C0B2B2"/>
<rect x="44.8" y="0.775055" width="949.2" height="1.4125" fill="#FA662C"/>
<rect x="44.8" y="16.3125" width="949.2" height="1.4125" fill="#FA662C"/>
<rect x="44.8" y="31.8501" width="949.2" height="1.4125" fill="#FA662C"/>
<rect x="44.8" y="47.3877" width="949.2" height="1.4125" fill="#FA662C"/>
<rect x="44.8" y="62.9252" width="949.2" height="1.4125" fill="#FA662C"/>
<rect x="44.8" y="78.4626" width="949.2" height="1.4125" fill="#FA662C"/>
<rect x="44.8" y="94.0003" width="949.2" height="1.4125" fill="#FA662C"/>
<rect x="44.8" y="109.538" width="949.2" height="1.4125" fill="#FA662C"/>
<rect x="44.8" y="125.075" width="949.2" height="1.4125" fill="#FA662C"/>
<rect x="44.8" y="140.613" width="949.2" height="1.4125" fill="#FA662C"/>
<rect x="44.8" y="156.15" width="949.2" height="1.4125" fill="#FA662C"/>
<rect x="44.8" y="171.688" width="949.2" height="1.4125" fill="#FA662C"/>
<rect x="44.8" y="187.225" width="949.2" height="1.4125" fill="#FA662C"/>
<rect x="44.8" y="202.763" width="949.2" height="1.4125" fill="#FA662C"/>
<rect x="44.8" y="218.3" width="949.2" height="1.4125" fill="#FA662C"/>
<rect x="44.8" y="233.837" width="949.2" height="1.4125" fill="#FA662C"/>
<rect x="44.8" y="249.375" width="949.2" height="1.4125" fill="#FA662C"/>
<rect x="44.8" y="264.912" width="949.2" height="1.4125" fill="#FA662C"/>
<rect x="44.8" y="280.45" width="949.2" height="1.4125" fill="#FA662C"/>
<rect x="44.8" y="295.987" width="949.2" height="1.4125" fill="#FA662C"/>
<rect x="44.8" y="311.525" width="949.2" height="1.4125" fill="#FA662C"/>
<rect x="44.8" y="327.062" width="949.2" height="1.4125" fill="#FA662C"/>
<rect x="44.8" y="342.6" width="949.2" height="1.4125" fill="#FA662C"/>
<rect x="44.8" y="358.137" width="949.2" height="1.4125" fill="#FA662C"/>
<rect x="44.8" y="373.675" width="949.2" height="1.4125" fill="#FA662C"/>
<rect x="44.8" y="389.212" width="949.2" height="1.4125" fill="#FA662C"/>
<rect x="44.8" y="404.75" width="949.2" height="1.4125" fill="#FA662C"/>
<rect x="44.8" y="420.287" width="949.2" height="1.4125" fill="#FA662C"/>
<rect x="44.8" y="435.825" width="949.2" height="1.4125" fill="#FA662C"/>
<rect x="44.8" y="451.362" width="949.2" height="1.4125" fill="#FA662C"/>
<rect x="44.8" y="466.9" width="949.2" height="1.4125" fill="#FA662C"/>
<rect x="44.8" y="482.437" width="949.2" height="1.4125" fill="#FA662C"/>
<rect x="44.8" y="497.975" width="949.2" height="1.4125" fill="#FA662C"/>
<rect x="44.8" y="513.512" width="949.2" height="1.4125" fill="#FA662C"/>
<rect x="44.8" y="529.049" width="949.2" height="1.4125" fill="#FA662C"/>
<rect x="44.8" y="544.587" width="949.2" height="1.4125" fill="#FA662C"/>
<rect x="44.8" y="546" width="949.2" height="1.4125" transform="rotate(-90 44.8 546)" fill="#FA662C"/>
<rect x="60.3376" y="546" width="949.2" height="1.4125" transform="rotate(-90 60.3376 546)" fill="#FA662C"/>
<rect x="75.875" y="546" width="949.2" height="1.4125" transform="rotate(-90 75.875 546)" fill="#FA662C"/>
<rect x="91.4126" y="546" width="949.2" height="1.4125" transform="rotate(-90 91.4126 546)" fill="#FA662C"/>
<rect x="106.95" y="546" width="949.2" height="1.4125" transform="rotate(-90 106.95 546)" fill="#FA662C"/>
<rect x="122.488" y="546" width="949.2" height="1.4125" transform="rotate(-90 122.488 546)" fill="#FA662C"/>
<rect x="138.025" y="546" width="949.2" height="1.4125" transform="rotate(-90 138.025 546)" fill="#FA662C"/>
<rect x="153.562" y="546" width="949.2" height="1.4125" transform="rotate(-90 153.562 546)" fill="#FA662C"/>
<rect x="169.1" y="546" width="949.2" height="1.4125" transform="rotate(-90 169.1 546)" fill="#FA662C"/>
<rect x="184.637" y="546" width="949.2" height="1.4125" transform="rotate(-90 184.637 546)" fill="#FA662C"/>
<rect x="200.175" y="546" width="949.2" height="1.4125" transform="rotate(-90 200.175 546)" fill="#FA662C"/>
<rect x="215.713" y="546" width="949.2" height="1.4125" transform="rotate(-90 215.713 546)" fill="#FA662C"/>
<rect x="231.25" y="546" width="949.2" height="1.4125" transform="rotate(-90 231.25 546)" fill="#FA662C"/>
<rect x="246.788" y="546" width="949.2" height="1.4125" transform="rotate(-90 246.788 546)" fill="#FA662C"/>
<rect x="262.325" y="546" width="949.2" height="1.4125" transform="rotate(-90 262.325 546)" fill="#FA662C"/>
<rect x="277.863" y="546" width="949.2" height="1.4125" transform="rotate(-90 277.863 546)" fill="#FA662C"/>
<rect x="293.4" y="546" width="949.2" height="1.4125" transform="rotate(-90 293.4 546)" fill="#FA662C"/>
<rect x="308.938" y="546" width="949.2" height="1.4125" transform="rotate(-90 308.938 546)" fill="#FA662C"/>
<rect x="324.475" y="546" width="949.2" height="1.4125" transform="rotate(-90 324.475 546)" fill="#FA662C"/>
<rect x="340.012" y="546" width="949.2" height="1.4125" transform="rotate(-90 340.012 546)" fill="#FA662C"/>
<rect x="355.55" y="546" width="949.2" height="1.4125" transform="rotate(-90 355.55 546)" fill="#FA662C"/>
<rect x="371.088" y="546" width="949.2" height="1.4125" transform="rotate(-90 371.088 546)" fill="#FA662C"/>
<rect x="386.625" y="546" width="949.2" height="1.4125" transform="rotate(-90 386.625 546)" fill="#FA662C"/>
<rect x="402.163" y="546" width="949.2" height="1.4125" transform="rotate(-90 402.163 546)" fill="#FA662C"/>
<rect x="417.7" y="546" width="949.2" height="1.4125" transform="rotate(-90 417.7 546)" fill="#FA662C"/>
<rect x="433.238" y="546" width="949.2" height="1.4125" transform="rotate(-90 433.238 546)" fill="#FA662C"/>
<rect x="448.775" y="546" width="949.2" height="1.4125" transform="rotate(-90 448.775 546)" fill="#FA662C"/>
<rect x="464.312" y="546" width="949.2" height="1.4125" transform="rotate(-90 464.312 546)" fill="#FA662C"/>
<rect x="479.85" y="546" width="949.2" height="1.4125" transform="rotate(-90 479.85 546)" fill="#FA662C"/>
<rect x="495.387" y="546" width="949.2" height="1.4125" transform="rotate(-90 495.387 546)" fill="#FA662C"/>
<rect x="510.925" y="546" width="949.2" height="1.4125" transform="rotate(-90 510.925 546)" fill="#FA662C"/>
<rect x="526.463" y="546" width="949.2" height="1.4125" transform="rotate(-90 526.463 546)" fill="#FA662C"/>
<rect x="542" y="546" width="949.2" height="1.4125" transform="rotate(-90 542 546)" fill="#FA662C"/>
<rect x="557.538" y="546" width="949.2" height="1.4125" transform="rotate(-90 557.538 546)" fill="#FA662C"/>
<rect x="573.075" y="546" width="949.2" height="1.4125" transform="rotate(-90 573.075 546)" fill="#FA662C"/>
<rect x="588.613" y="546" width="949.2" height="1.4125" transform="rotate(-90 588.613 546)" fill="#FA662C"/>
<rect x="604.15" y="546" width="949.2" height="1.4125" transform="rotate(-90 604.15 546)" fill="#FA662C"/>
<rect x="619.688" y="546" width="949.2" height="1.4125" transform="rotate(-90 619.688 546)" fill="#FA662C"/>
<rect x="635.225" y="546" width="949.2" height="1.4125" transform="rotate(-90 635.225 546)" fill="#FA662C"/>
<rect x="650.762" y="546" width="949.2" height="1.4125" transform="rotate(-90 650.762 546)" fill="#FA662C"/>
<rect x="666.3" y="546" width="949.2" height="1.4125" transform="rotate(-90 666.3 546)" fill="#FA662C"/>
<rect x="681.837" y="546" width="949.2" height="1.4125" transform="rotate(-90 681.837 546)" fill="#FA662C"/>
<rect x="697.375" y="546" width="949.2" height="1.4125" transform="rotate(-90 697.375 546)" fill="#FA662C"/>
<rect x="712.912" y="546" width="949.2" height="1.4125" transform="rotate(-90 712.912 546)" fill="#FA662C"/>
<rect x="728.45" y="546" width="949.2" height="1.4125" transform="rotate(-90 728.45 546)" fill="#FA662C"/>
<rect x="743.987" y="546" width="949.2" height="1.4125" transform="rotate(-90 743.987 546)" fill="#FA662C"/>
<rect x="759.525" y="546" width="949.2" height="1.4125" transform="rotate(-90 759.525 546)" fill="#FA662C"/>
<rect x="775.062" y="546" width="949.2" height="1.4125" transform="rotate(-90 775.062 546)" fill="#FA662C"/>
<rect x="790.6" y="546" width="949.2" height="1.4125" transform="rotate(-90 790.6 546)" fill="#FA662C"/>
<rect x="806.137" y="546" width="949.2" height="1.4125" transform="rotate(-90 806.137 546)" fill="#FA662C"/>
<rect x="821.675" y="546" width="949.2" height="1.4125" transform="rotate(-90 821.675 546)" fill="#FA662C"/>
<rect x="837.212" y="546" width="949.2" height="1.4125" transform="rotate(-90 837.212 546)" fill="#FA662C"/>
<rect x="852.75" y="546" width="949.2" height="1.4125" transform="rotate(-90 852.75 546)" fill="#FA662C"/>
<rect x="868.287" y="546" width="949.2" height="1.4125" transform="rotate(-90 868.287 546)" fill="#FA662C"/>
<rect x="883.825" y="546" width="949.2" height="1.4125" transform="rotate(-90 883.825 546)" fill="#FA662C"/>
<rect x="899.362" y="546" width="949.2" height="1.4125" transform="rotate(-90 899.362 546)" fill="#FA662C"/>
<rect x="914.9" y="546" width="949.2" height="1.4125" transform="rotate(-90 914.9 546)" fill="#FA662C"/>
<rect x="930.437" y="546" width="949.2" height="1.4125" transform="rotate(-90 930.437 546)" fill="#FA662C"/>
<rect x="945.975" y="546" width="949.2" height="1.4125" transform="rotate(-90 945.975 546)" fill="#FA662C"/>
<rect x="961.512" y="546" width="949.2" height="1.4125" transform="rotate(-90 961.512 546)" fill="#FA662C"/>
<rect x="977.05" y="546" width="949.2" height="1.4125" transform="rotate(-90 977.05 546)" fill="#FA662C"/>
<rect x="992.587" y="546" width="949.2" height="1.4125" transform="rotate(-90 992.587 546)" fill="#FA662C"/>
<rect x="526.4" y="421.4" width="572.6" height="212.8" fill="url(#paint6_linear_106_523)"/>
<rect x="527.179" y="276.077" width="571.954" height="146.476" fill="url(#paint7_linear_106_523)"/>
<rect x="527.179" y="115.656" width="571.954" height="160.426" fill="#C6B7B8"/>
<rect x="526.4" y="-37.8" width="574" height="154" fill="black"/>
<rect x="-37.8" y="276.077" width="564.979" height="146.476" fill="black"/>
<rect x="-37.8" y="115.656" width="564.979" height="160.426" fill="#B68CFE"/>
<rect x="-37.8" y="-37.8" width="564.979" height="153.451" fill="#C0B2B2"/>
<path d="M527.179 576.009H1099.13V1866.39H527.179V576.009Z" fill="url(#paint8_linear_106_523)"/>
<rect x="1098.43" y="951.959" width="558.701" height="2305.95" fill="url(#paint9_linear_106_523)"/>
<path d="M1100.4 -37.8224L1100.4 45.923L45.9009 45.9229L45.9009 -37.8224L1100.4 -37.8224Z" fill="#FF8635"/>
<rect x="-37.801" y="364" width="84" height="519.4" fill="white"/>
<rect x="-37.801" y="46.0151" width="83.7991" height="318.437" fill="#FF8635"/>
<rect x="-16.8" y="1372" width="1115.8" height="54.6" fill="#C7B9BB"/>
<rect x="527.8" y="1426.6" width="571.2" height="53.2" fill="#FF8635"/>
<rect x="1097.6" y="1372" width="382.2" height="107.8" fill="#C0B2B2"/>
</g>
<rect x="1479.8" y="-1.3999" width="60.2" height="910" fill="white"/>
<rect x="1479.5" y="116.32" width="60.2" height="910" fill="#B991FE"/>
<rect x="1479.5" y="980.122" width="60.2" height="910" fill="white"/>
<rect y="883.4" width="831.6" height="51.8" fill="url(#paint10_linear_106_523)"/>
</g>
<defs>
<linearGradient id="paint0_linear_106_523" x1="805.656" y1="1928.25" x2="805.669" y2="2140.51" gradientUnits="userSpaceOnUse">
<stop offset="0.0913462" stop-color="#C6B7B8"/>
<stop offset="0.120192" stop-color="#FF8635"/>
<stop offset="0.259615" stop-color="#C6B7B8"/>
<stop offset="0.375"/>
<stop offset="0.4375" stop-color="#FF8635"/>
<stop offset="0.538462"/>
<stop offset="0.697115" stop-color="#C6B7B8"/>
<stop offset="0.75" stop-color="#C6B7B8"/>
<stop offset="0.774038" stop-color="#FF8635"/>
<stop offset="0.860846" stop-color="#C6B7B8"/>
<stop offset="1" stop-color="#FF8635"/>
</linearGradient>
<linearGradient id="paint1_linear_106_523" x1="1382.55" y1="1996.41" x2="1383.27" y2="3570.77" gradientUnits="userSpaceOnUse">
<stop offset="0.0913462" stop-color="#C1B3B3"/>
<stop offset="0.120192" stop-color="#FF8635"/>
<stop offset="0.259615" stop-color="#C1B3B3"/>
<stop offset="0.375" stop-color="#B68CFE"/>
<stop offset="0.4375"/>
<stop offset="0.538462" stop-color="#B68CFE"/>
<stop offset="0.697115" stop-color="#C1B3B3"/>
<stop offset="0.75" stop-color="#C1B3B3"/>
<stop offset="0.774038" stop-color="#FF8635"/>
<stop offset="0.860846" stop-color="#C1B3B3"/>
<stop offset="1"/>
</linearGradient>
<linearGradient id="paint2_linear_106_523" x1="245.75" y1="1079.77" x2="246.683" y2="2869.44" gradientUnits="userSpaceOnUse">
<stop offset="0.0913462" stop-color="#C6B7B8"/>
<stop offset="0.120192" stop-color="#B68CFE"/>
<stop offset="0.259615" stop-color="#C6B7B8"/>
<stop offset="0.375" stop-color="#FF8635"/>
<stop offset="0.4375" stop-color="#B68CFE"/>
<stop offset="0.538462"/>
<stop offset="0.697115" stop-color="#C6B7B8"/>
<stop offset="0.75" stop-color="#C6B7B8"/>
<stop offset="0.774038" stop-color="#FF8635"/>
<stop offset="0.860846" stop-color="#C6B7B8"/>
<stop offset="1" stop-color="#FF8635"/>
</linearGradient>
<linearGradient id="paint3_linear_106_523" x1="1306.05" y1="-24.9752" x2="1306.23" y2="643.86" gradientUnits="userSpaceOnUse">
<stop offset="0.0913462" stop-color="#C6B7B8"/>
<stop offset="0.120192" stop-color="#B68CFE"/>
<stop offset="0.259615" stop-color="#C6B7B8"/>
<stop offset="0.436534" stop-color="#C6B7B8"/>
<stop offset="0.538462" stop-color="#C6B7B8"/>
<stop offset="0.539067" stop-color="#F9ABFF"/>
<stop offset="0.697115" stop-color="#C6B7B8"/>
<stop offset="0.75" stop-color="#C6B7B8"/>
<stop offset="0.774038" stop-color="#F9B5FF"/>
<stop offset="0.860846" stop-color="#C6B7B8"/>
<stop offset="1" stop-color="#F9AEFF"/>
</linearGradient>
<linearGradient id="paint4_linear_106_523" x1="1376.9" y1="274.4" x2="1377.97" y2="409.858" gradientUnits="userSpaceOnUse">
<stop stop-color="#C6B7B8"/>
<stop offset="1" stop-color="#B68CFE"/>
</linearGradient>
<linearGradient id="paint5_linear_106_523" x1="1378.53" y1="533.9" x2="1378.54" y2="746.16" gradientUnits="userSpaceOnUse">
<stop offset="0.0913462" stop-color="#C6B7B8"/>
<stop offset="0.120192" stop-color="#FF8635"/>
<stop offset="0.259615" stop-color="#C6B7B8"/>
<stop offset="0.375"/>
<stop offset="0.4375" stop-color="#FF8635"/>
<stop offset="0.538462"/>
<stop offset="0.697115" stop-color="#C6B7B8"/>
<stop offset="0.75" stop-color="#C6B7B8"/>
<stop offset="0.774038" stop-color="#FF8635"/>
<stop offset="0.860846" stop-color="#C6B7B8"/>
<stop offset="1" stop-color="#FF8635"/>
</linearGradient>
<linearGradient id="paint6_linear_106_523" x1="813.459" y1="412.733" x2="813.474" y2="644.84" gradientUnits="userSpaceOnUse">
<stop offset="0.0913462" stop-color="#C6B7B8"/>
<stop offset="0.120192" stop-color="#FF8635"/>
<stop offset="0.259615" stop-color="#C6B7B8"/>
<stop offset="0.375"/>
<stop offset="0.4375" stop-color="#B68CFE"/>
<stop offset="0.538462"/>
<stop offset="0.697115" stop-color="#C6B7B8"/>
<stop offset="0.75" stop-color="#C6B7B8"/>
<stop offset="0.774038" stop-color="#C6B7B8"/>
<stop offset="0.860846" stop-color="#C6B7B8"/>
<stop offset="1" stop-color="#C6B7B8"/>
</linearGradient>
<linearGradient id="paint7_linear_106_523" x1="813.914" y1="270.111" x2="813.921" y2="429.877" gradientUnits="userSpaceOnUse">
<stop offset="0.0913462" stop-color="#C6B7B8"/>
<stop offset="0.120192" stop-color="#FF8635"/>
<stop offset="0.259615" stop-color="#C6B7B8"/>
<stop offset="0.375"/>
<stop offset="0.4375" stop-color="#B68CFE"/>
<stop offset="0.538462"/>
<stop offset="0.697115" stop-color="#C6B7B8"/>
<stop offset="0.75" stop-color="#C6B7B8"/>
<stop offset="0.774038" stop-color="#FF8635"/>
<stop offset="0.860846" stop-color="#C6B7B8"/>
<stop offset="1" stop-color="#FF8635"/>
</linearGradient>
<linearGradient id="paint8_linear_106_523" x1="813.914" y1="523.453" x2="814.484" y2="1930.91" gradientUnits="userSpaceOnUse">
<stop offset="0.0913462" stop-color="#C1B3B3"/>
<stop offset="0.21485" stop-color="#FF8635"/>
<stop offset="0.241028" stop-color="#C1B3B3"/>
<stop offset="0.375" stop-color="#B68CFE"/>
<stop offset="0.4375"/>
<stop offset="0.538462" stop-color="#B68CFE"/>
<stop offset="0.697115" stop-color="#C1B3B3"/>
<stop offset="0.75" stop-color="#C1B3B3"/>
<stop offset="0.774038" stop-color="#FF8635"/>
<stop offset="0.860846" stop-color="#C1B3B3"/>
<stop offset="1"/>
</linearGradient>
<linearGradient id="paint9_linear_106_523" x1="1378.53" y1="858.039" x2="1380.39" y2="3373.2" gradientUnits="userSpaceOnUse">
<stop offset="0.0913462" stop-color="#C0B2B2"/>
<stop offset="0.120192" stop-color="#FF8635"/>
<stop offset="0.259615" stop-color="#C0B2B2"/>
<stop offset="0.375" stop-color="#FF8635"/>
<stop offset="0.4375" stop-color="#FF8635"/>
<stop offset="0.538462"/>
<stop offset="0.697115" stop-color="#C0B2B2"/>
<stop offset="0.75" stop-color="#C0B2B2"/>
<stop offset="0.774038" stop-color="#28A7FD"/>
<stop offset="0.860846" stop-color="#C0B2B2"/>
<stop offset="1" stop-color="#28A7FD"/>
</linearGradient>
<linearGradient id="paint10_linear_106_523" x1="415.8" y1="935.2" x2="415.8" y2="883.4" gradientUnits="userSpaceOnUse">
<stop stop-color="#FF8635"/>
<stop offset="1" stop-color="#C0B2B2"/>
</linearGradient>
<clipPath id="clip0_106_523">
<rect width="1512" height="1890" fill="white"/>
</clipPath>
<clipPath id="clip1_106_523">
<rect width="2259.6" height="1139.6" fill="white" transform="translate(1661.8 2515.8) rotate(-180)"/>
</clipPath>
<clipPath id="clip2_106_523">
<rect width="2259.91" height="1565.2" fill="white" transform="translate(-37.8 -37.8)"/>
</clipPath>
</defs>
</svg>
